<mxfile host="65bd71144e">
    <diagram id="UdLohQzR5p4XeUmenA0K" name="Page-1">
        <mxGraphModel dx="408" dy="482" grid="1" gridSize="10" guides="1" tooltips="1" connect="1" arrows="1" fold="1" page="1" pageScale="1" pageWidth="827" pageHeight="1169" math="0" shadow="0">
            <root>
                <mxCell id="0"/>
                <mxCell id="1" parent="0"/>
                <mxCell id="2" value="Inicio" style="ellipse;whiteSpace=wrap;html=1;" parent="1" vertex="1">
                    <mxGeometry x="280" y="80" width="120" height="80" as="geometry"/>
                </mxCell>
                <mxCell id="4" value="Elegir un número" style="rounded=0;whiteSpace=wrap;html=1;fontFamily=Comic Sans MS;" parent="1" vertex="1">
                    <mxGeometry x="280" y="320" width="120" height="60" as="geometry"/>
                </mxCell>
                <mxCell id="7" value="" style="endArrow=classic;html=1;fontFamily=Comic Sans MS;startArrow=none;" parent="1" edge="1">
                    <mxGeometry width="50" height="50" relative="1" as="geometry">
                        <mxPoint x="240" y="500" as="sourcePoint"/>
                        <mxPoint x="160" y="578" as="targetPoint"/>
                        <Array as="points">
                            <mxPoint x="160" y="500"/>
                        </Array>
                    </mxGeometry>
                </mxCell>
                <mxCell id="8" value="Devolver número&lt;br&gt;correcto" style="rounded=0;whiteSpace=wrap;html=1;fontFamily=Comic Sans MS;" parent="1" vertex="1">
                    <mxGeometry x="100" y="578" width="120" height="60" as="geometry"/>
                </mxCell>
                <mxCell id="11" value="" style="endArrow=classic;html=1;fontFamily=Comic Sans MS;exitX=1;exitY=0.5;exitDx=0;exitDy=0;" parent="1" source="21" edge="1">
                    <mxGeometry width="50" height="50" relative="1" as="geometry">
                        <mxPoint x="640" y="499.0000000000001" as="sourcePoint"/>
                        <mxPoint x="520" y="579" as="targetPoint"/>
                        <Array as="points">
                            <mxPoint x="520" y="499"/>
                        </Array>
                    </mxGeometry>
                </mxCell>
                <mxCell id="12" value="Devolver número&lt;br&gt;correcto" style="rounded=0;whiteSpace=wrap;html=1;fontFamily=Comic Sans MS;" parent="1" vertex="1">
                    <mxGeometry x="460" y="579" width="120" height="60" as="geometry"/>
                </mxCell>
                <mxCell id="13" value="Número incorrecto" style="text;strokeColor=none;fillColor=none;align=left;verticalAlign=middle;spacingLeft=4;spacingRight=4;overflow=hidden;points=[[0,0.5],[1,0.5]];portConstraint=eastwest;rotatable=0;fontFamily=Comic Sans MS;" parent="1" vertex="1">
                    <mxGeometry x="400" y="470" width="120" height="30" as="geometry"/>
                </mxCell>
                <mxCell id="16" value="Fin" style="ellipse;whiteSpace=wrap;html=1;fontFamily=Comic Sans MS;" parent="1" vertex="1">
                    <mxGeometry x="100" y="718" width="120" height="80" as="geometry"/>
                </mxCell>
                <mxCell id="17" value="" style="endArrow=classic;html=1;fontFamily=Comic Sans MS;entryX=0.5;entryY=0;entryDx=0;entryDy=0;exitX=0.5;exitY=1;exitDx=0;exitDy=0;" parent="1" source="8" target="16" edge="1">
                    <mxGeometry width="50" height="50" relative="1" as="geometry">
                        <mxPoint x="350" y="678" as="sourcePoint"/>
                        <mxPoint x="400" y="628" as="targetPoint"/>
                    </mxGeometry>
                </mxCell>
                <mxCell id="18" value="Crear número aleatorio" style="rounded=0;whiteSpace=wrap;html=1;fontFamily=Comic Sans MS;" parent="1" vertex="1">
                    <mxGeometry x="280" y="200" width="120" height="60" as="geometry"/>
                </mxCell>
                <mxCell id="19" value="" style="endArrow=classic;html=1;fontFamily=Comic Sans MS;entryX=0.5;entryY=0;entryDx=0;entryDy=0;exitX=0.5;exitY=1;exitDx=0;exitDy=0;" parent="1" source="2" target="18" edge="1">
                    <mxGeometry width="50" height="50" relative="1" as="geometry">
                        <mxPoint x="460" y="320" as="sourcePoint"/>
                        <mxPoint x="510" y="270" as="targetPoint"/>
                    </mxGeometry>
                </mxCell>
                <mxCell id="20" value="" style="endArrow=classic;html=1;fontFamily=Comic Sans MS;entryX=0.5;entryY=0;entryDx=0;entryDy=0;exitX=0.5;exitY=1;exitDx=0;exitDy=0;" parent="1" target="21" edge="1" source="4">
                    <mxGeometry width="50" height="50" relative="1" as="geometry">
                        <mxPoint x="340" y="400" as="sourcePoint"/>
                        <mxPoint x="340" y="440" as="targetPoint"/>
                    </mxGeometry>
                </mxCell>
                <mxCell id="21" value="Contador +1" style="rounded=0;whiteSpace=wrap;html=1;" vertex="1" parent="1">
                    <mxGeometry x="280" y="470" width="120" height="60" as="geometry"/>
                </mxCell>
                <mxCell id="22" value="" style="endArrow=none;html=1;fontFamily=Comic Sans MS;exitX=1;exitY=0.5;exitDx=0;exitDy=0;entryX=0.5;entryY=1;entryDx=0;entryDy=0;" edge="1" parent="1" target="21">
                    <mxGeometry width="50" height="50" relative="1" as="geometry">
                        <mxPoint x="520" y="638" as="sourcePoint"/>
                        <mxPoint x="340" y="300" as="targetPoint"/>
                        <Array as="points">
                            <mxPoint x="520" y="738"/>
                            <mxPoint x="340" y="738"/>
                        </Array>
                    </mxGeometry>
                </mxCell>
                <mxCell id="23" value="" style="endArrow=classic;html=1;fontFamily=Comic Sans MS;entryX=0.5;entryY=0;entryDx=0;entryDy=0;exitX=0.5;exitY=1;exitDx=0;exitDy=0;" edge="1" parent="1" source="18" target="4">
                    <mxGeometry width="50" height="50" relative="1" as="geometry">
                        <mxPoint x="350" y="389.0000000000001" as="sourcePoint"/>
                        <mxPoint x="350" y="479.0000000000001" as="targetPoint"/>
                    </mxGeometry>
                </mxCell>
                <mxCell id="9" value="Número correcto" style="text;strokeColor=none;fillColor=none;align=left;verticalAlign=middle;spacingLeft=4;spacingRight=4;overflow=hidden;points=[[0,0.5],[1,0.5]];portConstraint=eastwest;rotatable=0;fontFamily=Comic Sans MS;" parent="1" vertex="1">
                    <mxGeometry x="160" y="470" width="120" height="30" as="geometry"/>
                </mxCell>
                <mxCell id="24" value="" style="endArrow=none;html=1;fontFamily=Comic Sans MS;exitX=0;exitY=0.5;exitDx=0;exitDy=0;" edge="1" parent="1" source="21">
                    <mxGeometry width="50" height="50" relative="1" as="geometry">
                        <mxPoint x="280" y="500.0000000000001" as="sourcePoint"/>
                        <mxPoint x="230" y="500" as="targetPoint"/>
                        <Array as="points"/>
                    </mxGeometry>
                </mxCell>
            </root>
        </mxGraphModel>
    </diagram>
</mxfile>